v 0.392671 0.658148 0.647544
v 0.713443 0.209241 0.764746
v 0.407634 0.899736 0.094468
v -0.038506 0.889166 0.406075
v 0.891078 0.275553 -0.716561
v 0.569471 0.155496 -1.177097
v -0.374165 0.539859 -1.033223
v 0.880463 -0.668181 -0.844544
v 0.104839 -0.687972 -1.358557
v 0.562910 -0.427763 -1.256197
v -0.447741 0.611728 0.647544
v -0.838439 0.459623 0.279050
v -0.269485 0.209241 1.038253
v -1.028674 -0.086323 0.322210
v -0.646371 -0.817797 0.764746
v -0.978015 -0.671850 0.322210
v -0.288474 -1.229218 0.647544
v -0.707709 -0.909526 -0.832499
v -0.644998 0.048202 -1.138997
v -0.352904 -0.904758 -1.177097
v -0.163393 -1.394004 -0.257351
v -0.270234 -0.998746 -0.570501
v 0.635888 -0.795267 0.810507
v 0.011375 -0.266724 1.179003
v -0.320632 -0.350130 -1.375997
v 0.721892 -1.155140 -0.558653
v 0.944039 -0.817797 0.322210
v -0.492061 -0.322471 1.038253
v 0.517217 -0.266724 1.038253
v 0.742518 0.678676 -0.309963
v -0.043233 0.998726 -0.190160
v -0.456928 0.824626 -0.511031
v -0.795552 0.417730 -0.700668
v 0.254783 -1.323994 -0.700668
vn 0.423376 -0.601207 -0.677719
vn 0.423376 -0.601207 -0.677719
vn 0.423376 -0.601207 -0.677719
vn -0.809204 -0.070013 0.583341
vn -0.809204 -0.070013 0.583341
vn -0.809204 -0.070013 0.583341
vn -0.539531 -0.663438 -0.518418
vn -0.539531 -0.663438 -0.518418
vn -0.539531 -0.663438 -0.518418
vn 0.357531 -0.914289 -0.190389
vn 0.357531 -0.914289 -0.190389
vn 0.357531 -0.914289 -0.190389
vn -0.525366 -0.611093 -0.592078
vn -0.525366 -0.611093 -0.592078
vn -0.525366 -0.611093 -0.592078
vn 0.245091 0.405097 0.880811
vn 0.245091 0.405097 0.880811
vn 0.245091 0.405097 0.880811
vn -0.215103 -0.318552 -0.923177
vn -0.215103 -0.318552 -0.923177
vn -0.215103 -0.318552 -0.923177
vn -0.625452 0.477325 -0.617228
vn -0.625452 0.477325 -0.617228
vn -0.625452 0.477325 -0.617228
vn 0.083637 -0.501523 0.861092
vn 0.083637 -0.501523 0.861092
vn 0.083637 -0.501523 0.861092
vn -0.974034 -0.008624 -0.226237
vn -0.974034 -0.008624 -0.226237
vn -0.974034 -0.008624 -0.226237
vn 0.319635 0.357236 -0.877619
vn 0.319635 0.357236 -0.877619
vn 0.319635 0.357236 -0.877619
vn -0.961950 -0.083221 -0.260243
vn -0.961950 -0.083221 -0.260243
vn -0.961950 -0.083221 -0.260243
vn -0.051375 0.237014 -0.970147
vn -0.051375 0.237014 -0.970147
vn -0.051375 0.237014 -0.970147
vn -0.563451 0.684501 -0.462581
vn -0.563451 0.684501 -0.462581
vn -0.563451 0.684501 -0.462581
vn -0.037965 0.687321 0.725361
vn -0.037965 0.687321 0.725361
vn -0.037965 0.687321 0.725361
vn 0.001665 0.878051 -0.478564
vn 0.001665 0.878051 -0.478564
vn 0.001665 0.878051 -0.478564
vn 0.305534 0.729644 -0.611774
vn 0.305534 0.729644 -0.611774
vn 0.305534 0.729644 -0.611774
vn 0.965318 0.228660 0.125996
vn 0.965318 0.228660 0.125996
vn 0.965318 0.228660 0.125996
vn 0.844131 -0.040819 0.534580
vn 0.844131 -0.040819 0.534580
vn 0.844131 -0.040819 0.534580
vn 0.469064 -0.555726 -0.686401
vn 0.469064 -0.555726 -0.686401
vn 0.469064 -0.555726 -0.686401
vn 0.809203 0.070009 -0.583343
vn 0.809203 0.070009 -0.583343
vn 0.809203 0.070009 -0.583343
vn 0.809204 0.070007 -0.583341
vn 0.809204 0.070007 -0.583341
vn 0.809204 0.070007 -0.583341
vn 0.245084 0.405105 0.880809
vn 0.245084 0.405105 0.880809
vn 0.245084 0.405105 0.880809
vn -0.199719 -0.425228 0.882776
vn -0.199719 -0.425228 0.882776
vn -0.199719 -0.425228 0.882776
vn 0.257108 -0.930544 0.260736
vn 0.257108 -0.930544 0.260736
vn 0.257108 -0.930544 0.260736
vn 0.381551 -0.898259 0.218058
vn 0.381551 -0.898259 0.218058
vn 0.381551 -0.898259 0.218058
vn 0.844127 -0.040818 0.534587
vn 0.844127 -0.040818 0.534587
vn 0.844127 -0.040818 0.534587
vn -0.087890 -0.978522 -0.186467
vn -0.087890 -0.978522 -0.186467
vn -0.087890 -0.978522 -0.186467
vn -0.631892 -0.774970 0.011594
vn -0.631892 -0.774970 0.011594
vn -0.631892 -0.774970 0.011594
vn -0.169881 0.542706 0.822563
vn -0.169881 0.542706 0.822563
vn -0.169881 0.542706 0.822563
vn -0.279397 0.116956 0.953026
vn -0.279397 0.116956 0.953026
vn -0.279397 0.116956 0.953026
vn -0.961948 -0.083228 -0.260249
vn -0.961948 -0.083228 -0.260249
vn -0.961948 -0.083228 -0.260249
vn -0.944221 0.324651 -0.055215
vn -0.944221 0.324651 -0.055215
vn -0.944221 0.324651 -0.055215
vn -0.486664 0.858509 0.161617
vn -0.486664 0.858509 0.161617
vn -0.486664 0.858509 0.161617
vn -0.753057 0.655123 -0.060978
vn -0.753057 0.655123 -0.060978
vn -0.753057 0.655123 -0.060978
vn 0.144524 0.131380 -0.980741
vn 0.144524 0.131380 -0.980741
vn 0.144524 0.131380 -0.980741
vn -0.486654 0.858514 0.161618
vn -0.486654 0.858514 0.161618
vn -0.486654 0.858514 0.161618
vn -0.486662 0.858511 0.161613
vn -0.486662 0.858511 0.161613
vn -0.486662 0.858511 0.161613
vn 0.101843 0.978563 0.179006
vn 0.101843 0.978563 0.179006
vn 0.101843 0.978563 0.179006
vn 0.339208 0.914825 -0.219162
vn 0.339208 0.914825 -0.219162
vn 0.339208 0.914825 -0.219162
vn 0.246989 0.807113 -0.536251
vn 0.246989 0.807113 -0.536251
vn 0.246989 0.807113 -0.536251
vn -0.809205 -0.070011 0.583340
vn -0.809205 -0.070011 0.583340
vn -0.809205 -0.070011 0.583340
vn 0.743298 0.605421 0.284559
vn 0.743298 0.605421 0.284559
vn 0.743298 0.605421 0.284559
vn 0.252624 -0.334491 0.907908
vn 0.252624 -0.334491 0.907908
vn 0.252624 -0.334491 0.907908
vn -0.713771 0.298786 0.633449
vn -0.713771 0.298786 0.633449
vn -0.713771 0.298786 0.633449
vn 0.992664 -0.027144 0.117823
vn 0.992664 -0.027144 0.117823
vn 0.992664 -0.027144 0.117823
vn 0.973204 0.228721 -0.023699
vn 0.973204 0.228721 -0.023699
vn 0.973204 0.228721 -0.023699
vn 0.928316 -0.359018 -0.096621
vn 0.928316 -0.359018 -0.096621
vn 0.928316 -0.359018 -0.096621
vn 0.344173 -0.902522 0.258840
vn 0.344173 -0.902522 0.258840
vn 0.344173 -0.902522 0.258840
vn -0.723574 -0.195316 -0.662037
vn -0.723574 -0.195316 -0.662037
vn -0.723574 -0.195316 -0.662037
vn -0.199726 -0.425221 0.882778
vn -0.199726 -0.425221 0.882778
vn -0.199726 -0.425221 0.882778
vn -0.252616 0.334483 -0.907913
vn -0.252616 0.334483 -0.907913
vn -0.252616 0.334483 -0.907913
vn 0.488043 0.499623 0.715675
vn 0.488043 0.499623 0.715675
vn 0.488043 0.499623 0.715675
vn -0.119032 -0.983509 -0.136166
vn -0.119032 -0.983509 -0.136166
vn -0.119032 -0.983509 -0.136166
vn 0.383347 -0.897872 0.216496
vn 0.383347 -0.897872 0.216496
vn 0.383347 -0.897872 0.216496
vn -0.946507 -0.314172 -0.073620
vn -0.946507 -0.314172 -0.073620
vn -0.946507 -0.314172 -0.073620
vn -0.683903 -0.181372 -0.706669
vn -0.683903 -0.181372 -0.706669
vn -0.683903 -0.181372 -0.706669
vn -0.680484 -0.673918 0.287709
vn -0.680484 -0.673918 0.287709
vn -0.680484 -0.673918 0.287709
vn -0.713770 0.298792 0.633447
vn -0.713770 0.298792 0.633447
vn -0.713770 0.298792 0.633447
vn -0.713771 0.298791 0.633447
vn -0.713771 0.298791 0.633447
vn -0.713771 0.298791 0.633447
vn 0.469065 -0.555726 -0.686402
vn 0.469065 -0.555726 -0.686402
vn 0.469065 -0.555726 -0.686402
vn 0.285589 0.859679 -0.423545
vn 0.285589 0.859679 -0.423545
vn 0.285589 0.859679 -0.423545
vn 0.253522 0.883917 0.392961
vn 0.253522 0.883917 0.392961
vn 0.253522 0.883917 0.392961
vn 0.743295 0.605423 0.284563
vn 0.743295 0.605423 0.284563
vn 0.743295 0.605423 0.284563
vt 0.349545 0.029730
vt 0.425478 0.295279
vt 0.112996 0.100229
vt 0.664496 0.302010
vt 0.944467 0.447881
vt 0.664496 0.546476
vt 0.615418 0.684553
vt 0.425478 0.992681
vt 0.349545 0.735448
vt 0.425478 0.992681
vt 0.615418 0.684553
vt 0.657283 0.921731
vt 0.437888 0.000500
vt 0.315447 0.165526
vt 0.264552 0.029730
vt 0.527191 0.471156
vt 0.882724 0.669879
vt 0.720283 0.857304
vt 0.657283 0.204767
vt 0.640940 0.436333
vt 0.425478 0.295279
vt 0.134524 0.807917
vt 0.093166 0.602642
vt 0.264552 0.756926
vt 0.527191 0.471156
vt 0.375344 0.069300
vt 0.843450 0.250481
vt 0.093166 0.602642
vt 0.213006 0.202776
vt 0.664496 0.302010
vt 0.640940 0.436333
vt 0.668050 0.807917
vt 0.425478 0.295279
vt 0.264552 0.756926
vt 0.093166 0.602642
vt 0.664496 0.302010
vt 0.190184 0.647439
vt 0.425478 0.295279
vt 0.668050 0.807917
vt 0.290038 0.661300
vt 0.331950 0.865476
vt 0.118555 0.735448
vt 0.384961 0.055533
vt 0.501931 0.302713
vt 0.294690 0.208299
vt 0.499537 0.535840
vt 0.331950 0.865476
vt 0.290038 0.661300
vt 0.897449 0.582683
vt 0.972681 0.741662
vt 0.331950 0.865476
vt 0.162473 0.669879
vt 0.741662 0.697565
vt 0.582683 0.865875
vt 0.055533 0.471156
vt 0.144581 0.250481
vt 0.162473 0.669879
vt 0.112996 0.100229
vt 0.425478 0.295279
vt 0.032695 0.303542
vt 0.741662 0.697565
vt 0.952659 0.403920
vt 0.921731 0.647439
vt 0.952659 0.403920
vt 0.741662 0.697565
vt 0.791703 0.303542
vt 0.783354 0.471156
vt 0.882724 0.669879
vt 0.527191 0.471156
vt 0.272246 0.447881
vt 0.194102 0.241075
vt 0.527191 0.471156
vt 0.156550 0.144581
vt 0.349545 0.735448
vt 0.112996 0.679920
vt 0.156550 0.144581
vt 0.561314 0.562112
vt 0.349545 0.735448
vt 0.144581 0.250481
vt 0.335504 0.241075
vt 0.162473 0.669879
vt 0.624656 0.208299
vt 0.836960 0.786994
vt 0.615418 0.684553
vt 0.973846 0.335504
vt 0.836960 0.786994
vt 0.624656 0.208299
vt 0.501931 0.953758
vt 0.527191 0.471156
vt 0.720283 0.857304
vt 0.527191 0.471156
vt 0.384961 0.669879
vt 0.272246 0.447881
vt 0.664496 0.546476
vt 0.264552 0.756926
vt 0.664496 0.302010
vt 0.647620 0.774417
vt 0.264552 0.756926
vt 0.664496 0.546476
vt 0.290038 0.661300
vt 0.096837 0.352380
vt 0.294690 0.208299
vt 0.264552 0.756926
vt 0.647620 0.774417
vt 0.338700 0.926811
vt 0.193506 0.403920
vt 0.425478 0.295279
vt 0.190184 0.647439
vt 0.294690 0.208299
vt 0.499537 0.535840
vt 0.290038 0.661300
vt 0.501931 0.302713
vt 0.499537 0.535840
vt 0.294690 0.208299
vt 0.727860 0.424551
vt 0.499537 0.535840
vt 0.501931 0.302713
vt 0.897449 0.582683
vt 0.499537 0.535840
vt 0.727860 0.424551
vt 0.897449 0.582683
vt 0.331950 0.865476
vt 0.499537 0.535840
vt 0.944467 0.447881
vt 0.664496 0.302010
vt 0.837527 0.241075
vt 0.162473 0.669879
vt 0.582683 0.865875
vt 0.424551 0.958171
vt 0.527191 0.471156
vt 0.843450 0.250481
vt 0.783354 0.471156
vt 0.664496 0.546476
vt 0.944467 0.447881
vt 0.944467 0.669879
vt 0.162473 0.669879
vt 0.791703 0.303542
vt 0.741662 0.697565
vt 0.335504 0.241075
vt 0.791703 0.303542
vt 0.162473 0.669879
vt 0.335504 0.241075
vt 0.679920 0.100229
vt 0.791703 0.303542
vt 0.156550 0.144581
vt 0.112996 0.679920
vt 0.000500 0.335504
vt 0.093166 0.602642
vt 0.000500 0.436333
vt 0.078269 0.204767
vt 0.527191 0.471156
vt 0.194102 0.241075
vt 0.375344 0.069300
vt 0.668050 0.807917
vt 0.640940 0.436333
vt 0.805203 0.602642
vt 0.501931 0.953758
vt 0.384961 0.669879
vt 0.527191 0.471156
vt 0.836960 0.786994
vt 0.657283 0.921731
vt 0.615418 0.684553
vt 0.624656 0.208299
vt 0.561314 0.562112
vt 0.156550 0.144581
vt 0.437888 0.000500
vt 0.791701 0.069300
vt 0.315447 0.165526
vt 0.213006 0.202776
vt 0.093166 0.602642
vt 0.078269 0.204767
vt 0.837527 0.241075
vt 0.664496 0.302010
vt 0.791701 0.069300
vt 0.944467 0.669879
vt 0.647620 0.774417
vt 0.664496 0.546476
vt 0.791701 0.837923
vt 0.647620 0.774417
vt 0.944467 0.669879
vt 0.032695 0.303542
vt 0.425478 0.295279
vt 0.193506 0.403920
vt 0.972681 0.741662
vt 0.809816 0.921731
vt 0.331950 0.865476
vt 0.720283 0.208299
vt 0.727860 0.424551
vt 0.501931 0.302713
vt 0.208299 0.857304
vt 0.162473 0.669879
vt 0.424551 0.958171
usemtl newmtl_17
f 34/1/1 9/2/2 26/3/3 
f 16/4/4 28/5/5 14/6/6 
f 22/7/7 9/8/8 34/9/9 
f 9/10/10 22/11/11 20/12/12 
f 21/13/13 22/14/14 34/15/15 
f 24/16/16 2/17/17 1/18/18 
f 20/19/19 25/20/20 9/21/21 
f 7/22/22 19/23/23 33/24/24 
f 24/25/25 17/26/26 23/27/27 
f 19/28/28 18/29/29 16/30/30 
f 25/31/31 7/32/32 9/33/33 
f 33/34/34 19/35/35 16/36/36 
f 6/37/37 9/38/38 7/39/39 
f 32/40/40 7/41/41 33/42/42 
f 13/43/43 4/44/44 11/45/45 
f 31/46/46 7/47/47 32/48/48 
f 30/49/49 5/50/50 7/51/51 
f 2/52/52 5/53/53 30/54/54 
f 29/55/55 23/56/56 2/57/57 
f 26/58/58 9/59/59 8/60/60 
f 5/61/61 10/62/62 6/63/63 
f 10/64/64 5/65/65 8/66/66 
f 29/67/67 2/68/68 24/69/69 
f 28/70/70 15/71/71 24/72/72 
f 23/73/73 34/74/74 26/75/75 
f 23/76/76 21/77/77 34/78/78 
f 23/79/79 27/80/80 2/81/81 
f 17/82/82 18/83/83 22/84/84 
f 16/85/85 18/86/86 17/87/87 
f 4/88/88 24/89/89 1/90/90 
f 24/91/91 13/92/92 28/93/93 
f 14/94/94 33/95/95 16/96/96 
f 12/97/97 33/98/98 14/99/99 
f 32/100/100 12/101/101 11/102/102 
f 33/103/103 12/104/104 32/105/105 
f 10/106/106 9/107/107 6/108/108 
f 11/109/109 31/110/110 32/111/111 
f 4/112/112 31/113/113 11/114/114 
f 3/115/115 31/116/116 4/117/117 
f 30/118/118 31/119/119 3/120/120 
f 30/121/121 7/122/122 31/123/123 
f 28/124/124 16/125/125 15/126/126 
f 2/127/127 30/128/128 3/129/129 
f 24/130/130 23/131/131 29/132/132 
f 14/133/133 28/134/134 13/135/135 
f 2/136/136 8/137/137 5/138/138 
f 27/139/139 8/140/140 2/141/141 
f 27/142/142 26/143/143 8/144/144 
f 23/145/145 26/146/146 27/147/147 
f 19/148/148 25/149/149 20/150/150 
f 24/151/151 15/152/152 17/153/153 
f 7/154/154 25/155/155 19/156/156 
f 4/157/157 13/158/158 24/159/159 
f 18/160/160 20/161/161 22/162/162 
f 17/163/163 21/164/164 23/165/165 
f 21/166/166 17/167/167 22/168/168 
f 18/169/169 19/170/170 20/171/171 
f 15/172/172 16/173/173 17/174/174 
f 13/175/175 12/176/176 14/177/177 
f 11/178/178 12/179/179 13/180/180 
f 8/181/181 9/182/182 10/183/183 
f 5/184/184 6/185/185 7/186/186 
f 1/187/187 3/188/188 4/189/189 
f 1/190/190 2/191/191 3/192/192
