v 1.632718 0.081846 -1.103503
v -0.078005 0.529205 -0.796116
v -0.315670 0.849405 0.182766
v 0.159658 -0.001290 -1.544164
v -1.050141 -0.327767 -1.346394
v 1.596439 -0.463477 0.468847
v -0.987992 -0.679935 0.674077
v -0.110429 -0.574430 -0.155448
v 1.579749 -0.679935 0.261552
v 1.850669 -0.519729 -0.278451
v 0.783236 -0.814451 -0.818455
v 1.452418 -0.586987 -0.818455
v 1.860389 0.601931 0.423138
v -0.011466 0.791862 1.181466
v 0.922204 0.599091 0.892396
v 2.017278 -0.151684 -0.104806
v 2.030968 0.149104 -0.563499
v 1.829859 0.482099 -0.357237
v -1.973842 0.081846 -0.794338
v -2.048452 0.131579 0.032205
v -1.759171 0.517149 -0.071156
v 0.352429 0.103858 1.286896
v -1.633211 -0.519729 0.492390
v -1.772722 -0.286200 -1.046767
v -1.663751 -0.586987 -0.634242
v -1.799281 -0.151684 0.560150
v -0.866152 -0.445952 0.973706
v -0.129621 -0.404385 1.228666
v 1.343439 -0.286200 -1.230984
v -1.220721 0.584407 0.515016
v -0.873812 -0.814451 -0.678918
vn 0.128557 0.979446 -0.155430
vn 0.128557 0.979446 -0.155430
vn 0.128557 0.979446 -0.155430
vn 0.048943 -0.643897 -0.763545
vn 0.048943 -0.643897 -0.763545
vn 0.048943 -0.643897 -0.763545
vn -0.154900 -0.946166 -0.284210
vn -0.154900 -0.946166 -0.284210
vn -0.154900 -0.946166 -0.284210
vn -0.203701 -0.742877 0.637683
vn -0.203701 -0.742877 0.637683
vn -0.203701 -0.742877 0.637683
vn 0.093260 -0.949562 0.299390
vn 0.093260 -0.949562 0.299390
vn 0.093260 -0.949562 0.299390
vn 0.556233 0.021807 0.830741
vn 0.556233 0.021807 0.830741
vn 0.556233 0.021807 0.830741
vn -0.350825 -0.663519 0.660806
vn -0.350825 -0.663519 0.660806
vn -0.350825 -0.663519 0.660806
vn 0.279068 0.111036 -0.953830
vn 0.279068 0.111036 -0.953830
vn 0.279068 0.111036 -0.953830
vn 0.193745 -0.092395 0.976691
vn 0.193745 -0.092395 0.976691
vn 0.193745 -0.092395 0.976691
vn -0.624515 0.526248 0.577100
vn -0.624515 0.526248 0.577100
vn -0.624515 0.526248 0.577100
vn 0.136596 -0.966308 -0.218150
vn 0.136596 -0.966308 -0.218150
vn 0.136596 -0.966308 -0.218150
vn -0.330374 0.404392 -0.852831
vn -0.330374 0.404392 -0.852831
vn -0.330374 0.404392 -0.852831
vn -0.272747 -0.959908 0.064698
vn -0.272747 -0.959908 0.064698
vn -0.272747 -0.959908 0.064698
vn 0.351628 -0.428845 0.832135
vn 0.351628 -0.428845 0.832135
vn 0.351628 -0.428845 0.832135
vn 0.254335 -0.748234 -0.612748
vn 0.254335 -0.748234 -0.612748
vn 0.254335 -0.748234 -0.612748
vn 0.046550 -0.645020 -0.762747
vn 0.046550 -0.645020 -0.762747
vn 0.046550 -0.645020 -0.762747
vn -0.329834 0.069725 0.941461
vn -0.329834 0.069725 0.941461
vn -0.329834 0.069725 0.941461
vn -0.241450 0.964023 0.111180
vn -0.241450 0.964023 0.111180
vn -0.241450 0.964023 0.111180
vn -0.499115 0.203243 0.842364
vn -0.499115 0.203243 0.842364
vn -0.499115 0.203243 0.842364
vn 0.029792 0.877559 -0.478542
vn 0.029792 0.877559 -0.478542
vn 0.029792 0.877559 -0.478542
vn -0.263143 -0.811310 -0.522046
vn -0.263143 -0.811310 -0.522046
vn -0.263143 -0.811310 -0.522046
vn -0.263144 -0.811311 -0.522044
vn -0.263144 -0.811311 -0.522044
vn -0.263144 -0.811311 -0.522044
vn -0.235416 0.963532 0.127224
vn -0.235416 0.963532 0.127224
vn -0.235416 0.963532 0.127224
vn 0.446344 -0.072313 0.891935
vn 0.446344 -0.072313 0.891935
vn 0.446344 -0.072313 0.891935
vn 0.035665 -0.905180 0.423529
vn 0.035665 -0.905180 0.423529
vn 0.035665 -0.905180 0.423529
vn -0.048841 -0.813151 -0.579999
vn -0.048841 -0.813151 -0.579999
vn -0.048841 -0.813151 -0.579999
vn -0.178084 0.056352 0.982400
vn -0.178084 0.056352 0.982400
vn -0.178084 0.056352 0.982400
vn -0.535103 0.183007 0.824727
vn -0.535103 0.183007 0.824727
vn -0.535103 0.183007 0.824727
vn -0.621733 0.601078 0.502148
vn -0.621733 0.601078 0.502148
vn -0.621733 0.601078 0.502148
vn -0.083697 0.808648 -0.582309
vn -0.083697 0.808648 -0.582309
vn -0.083697 0.808648 -0.582309
vn 0.060227 0.847208 -0.527836
vn 0.060227 0.847208 -0.527836
vn 0.060227 0.847208 -0.527836
vn 0.652983 -0.642135 -0.401592
vn 0.652983 -0.642135 -0.401592
vn 0.652983 -0.642135 -0.401592
vn 0.780537 -0.471224 -0.410743
vn 0.780537 -0.471224 -0.410743
vn 0.780537 -0.471224 -0.410743
vn 0.855835 -0.154534 -0.493624
vn 0.855835 -0.154534 -0.493624
vn 0.855835 -0.154534 -0.493624
vn 0.755019 -0.418617 -0.504683
vn 0.755019 -0.418617 -0.504683
vn 0.755019 -0.418617 -0.504683
vn 0.016411 -0.993284 0.114530
vn 0.016411 -0.993284 0.114530
vn 0.016411 -0.993284 0.114530
vn 0.568259 0.653177 -0.500442
vn 0.568259 0.653177 -0.500442
vn 0.568259 0.653177 -0.500442
vn 0.837673 -0.185490 0.513710
vn 0.837673 -0.185490 0.513710
vn 0.837673 -0.185490 0.513710
vn 0.113663 -0.804941 0.582366
vn 0.113663 -0.804941 0.582366
vn 0.113663 -0.804941 0.582366
vn 0.867902 -0.376846 0.323626
vn 0.867902 -0.376846 0.323626
vn 0.867902 -0.376846 0.323626
vn 0.985587 0.126475 0.112351
vn 0.985587 0.126475 0.112351
vn 0.985587 0.126475 0.112351
vn -0.727604 -0.685562 -0.024429
vn -0.727604 -0.685562 -0.024429
vn -0.727604 -0.685562 -0.024429
vn -0.869316 -0.493522 0.026944
vn -0.869316 -0.493522 0.026944
vn -0.869316 -0.493522 0.026944
vn -0.909968 -0.414212 0.019634
vn -0.909968 -0.414212 0.019634
vn -0.909968 -0.414212 0.019634
vn -0.956804 -0.287522 0.043101
vn -0.956804 -0.287522 0.043101
vn -0.956804 -0.287522 0.043101
vn 0.339475 0.315352 0.886177
vn 0.339475 0.315352 0.886177
vn 0.339475 0.315352 0.886177
vn -0.808894 0.577989 -0.107795
vn -0.808894 0.577989 -0.107795
vn -0.808894 0.577989 -0.107795
vn 0.815639 0.566221 -0.118857
vn 0.815639 0.566221 -0.118857
vn 0.815639 0.566221 -0.118857
vn 0.801979 -0.509878 0.311213
vn 0.801979 -0.509878 0.311213
vn 0.801979 -0.509878 0.311213
vn 0.345321 0.631516 0.694219
vn 0.345321 0.631516 0.694219
vn 0.345321 0.631516 0.694219
vn 0.110389 0.993608 0.023625
vn 0.110389 0.993608 0.023625
vn 0.110389 0.993608 0.023625
vn 0.319559 -0.940118 -0.118580
vn 0.319559 -0.940118 -0.118580
vn 0.319559 -0.940118 -0.118580
vn -0.217565 -0.666285 0.713253
vn -0.217565 -0.666285 0.713253
vn -0.217565 -0.666285 0.713253
vn 0.080081 -0.995905 -0.041948
vn 0.080081 -0.995905 -0.041948
vn 0.080081 -0.995905 -0.041948
vn -0.297685 0.731546 -0.613371
vn -0.297685 0.731546 -0.613371
vn -0.297685 0.731546 -0.613371
vn -0.483837 0.790280 -0.375978
vn -0.483837 0.790280 -0.375978
vn -0.483837 0.790280 -0.375978
vn 0.117636 0.827292 -0.549318
vn 0.117636 0.827292 -0.549318
vn 0.117636 0.827292 -0.549318
vn 0.200216 0.944527 -0.260351
vn 0.200216 0.944527 -0.260351
vn 0.200216 0.944527 -0.260351
vt 0.074624 0.628999
vt 0.862745 0.914826
vt 0.063409 1.042057
vt 0.367461 0.105430
vt 0.811859 0.000749
vt 1.040919 0.384873
vt 0.153280 1.078712
vt 0.712647 0.735807
vt 0.390290 1.174881
vt 0.432232 0.458731
vt 1.333503 0.956529
vt 0.712647 0.735807
vt 0.153280 1.078712
vt 0.432232 0.458731
vt 0.712647 0.735807
vt 1.339634 0.316843
vt 1.091966 1.273813
vt 0.882669 0.827796
vt 0.153280 1.078712
vt 0.390290 1.174881
vt 0.435046 1.333477
vt 0.688141 0.733098
vt 0.147039 0.807971
vt 0.253301 0.476503
vt 0.304801 1.260588
vt 0.092278 0.597650
vt 0.153280 0.266182
vt 1.195199 1.090689
vt 1.499251 0.835133
vt 1.407722 1.114578
vt 1.333503 0.956529
vt 0.432232 0.458731
vt 1.433021 0.670701
vt 1.132539 0.439066
vt 1.397966 0.476503
vt 1.471844 0.807972
vt 0.142062 0.482378
vt 0.432232 0.458731
vt 0.153280 1.078712
vt 1.339634 0.316843
vt 0.882669 0.827796
vt 0.705597 0.370063
vt 1.040919 0.384873
vt 1.246699 0.166518
vt 1.286731 0.384873
vt 1.040919 0.384873
vt 0.811859 0.000749
vt 1.246699 0.166518
vt 0.748999 1.447426
vt 0.435046 0.332627
vt 0.705597 0.370063
vt 0.862745 0.914826
vt 1.392989 0.780424
vt 1.195199 1.090689
vt 0.304801 1.260588
vt 0.435046 0.332627
vt 0.748999 1.447426
vt 0.147039 0.233995
vt 0.862745 0.914826
vt 0.074624 0.628999
vt 0.102034 0.264025
vt 0.432232 0.458731
vt 0.142062 0.482378
vt 0.102034 0.264025
vt 0.367461 0.105430
vt 0.432232 0.458731
vt 0.862745 0.914826
vt 1.195199 1.090689
vt 0.751001 1.443446
vt 1.091966 1.273813
vt 1.339634 0.316843
vt 1.436591 1.276371
vt 0.432232 0.458731
vt 1.040919 0.384873
vt 1.433021 0.670701
vt 0.367461 0.105430
vt 1.040919 0.384873
vt 0.432232 0.458731
vt 0.748999 1.447426
vt 0.705597 0.370063
vt 0.882669 0.827796
vt 0.435046 0.332627
vt 0.304801 1.260588
vt 0.153280 0.266182
vt 1.499251 0.835133
vt 1.195199 1.090689
vt 1.392989 0.780424
vt 1.132539 0.105430
vt 1.392989 0.780424
vt 0.862745 0.914826
vt 1.392989 0.780424
vt 1.132539 0.105430
vt 1.471844 0.397638
vt 1.494222 0.762612
vt 1.352961 0.233995
vt 1.499251 0.519823
vt 1.494222 0.762612
vt 1.246699 0.166518
vt 1.352961 0.233995
vt 0.266182 0.670701
vt 0.476503 0.166518
vt 0.597650 0.762612
vt 1.246699 0.166518
vt 1.433021 0.670701
vt 1.286731 0.384873
vt 0.435046 1.333477
vt 1.339634 1.066251
vt 0.705597 1.468429
vt 0.000749 0.519823
vt 0.147039 0.233995
vt 0.074624 0.628999
vt 1.276371 1.042057
vt 0.316843 1.066251
vt 0.597650 0.762612
vt 0.390290 1.174881
vt 1.339634 1.066251
vt 0.435046 1.333477
vt 1.433021 0.670701
vt 1.339634 1.066251
vt 1.333503 0.956529
vt 0.597650 0.762612
vt 0.868546 0.519823
vt 1.276371 1.042057
vt 0.028156 0.397638
vt 0.092278 1.114578
vt 0.000749 0.835133
vt 0.102034 0.264025
vt 0.092278 1.114578
vt 0.028156 0.397638
vt 0.102034 0.264025
vt 0.153280 1.078712
vt 0.092278 1.114578
vt 1.233818 1.078712
vt 1.023498 0.264025
vt 1.294392 0.482378
vt 0.748999 1.447426
vt 0.882669 0.827796
vt 1.091966 1.273813
vt 1.471844 0.397638
vt 1.499251 0.835133
vt 1.392989 0.780424
vt 0.063409 1.042057
vt 0.000749 0.519823
vt 0.074624 0.628999
vt 1.339634 1.066251
vt 1.433021 0.670701
vt 1.494222 0.762612
vt 0.063409 1.042057
vt 0.751001 1.443446
vt 0.408034 1.290439
vt 0.063409 1.042057
vt 0.862745 0.914826
vt 0.751001 1.443446
vt 1.433021 0.670701
vt 1.040919 0.384873
vt 1.286731 0.384873
vt 0.712647 0.735807
vt 1.333503 0.956529
vt 1.339634 1.066251
vt 1.339634 1.066251
vt 0.390290 1.174881
vt 0.712647 0.735807
vt 1.132539 0.105430
vt 0.775443 0.396697
vt 0.688141 0.000749
vt 0.775443 0.396697
vt 1.132539 0.105430
vt 0.862745 0.914826
vt 0.775443 0.396697
vt 0.147039 0.233995
vt 0.688141 0.000749
vt 0.147039 0.233995
vt 0.775443 0.396697
vt 0.862745 0.914826
usemtl newmtl_16
f 18/1/1 3/2/2 13/3/3 
f 5/4/4 4/5/5 11/6/6 
f 23/7/7 8/8/8 7/9/9 
f 31/10/10 9/11/11 8/12/12 
f 23/13/13 31/14/14 8/15/15 
f 6/16/16 15/17/17 22/18/18 
f 23/19/19 7/20/20 27/21/21 
f 4/22/22 1/23/23 29/24/24 
f 30/25/25 26/26/26 23/27/27 
f 30/28/28 20/29/29 26/30/30 
f 9/31/31 31/32/32 10/33/33 
f 5/34/34 24/35/35 19/36/36 
f 25/37/37 31/38/38 23/39/39 
f 6/40/40 22/41/41 28/42/42 
f 11/43/43 29/44/44 12/45/45 
f 11/46/46 4/47/47 29/48/48 
f 14/49/49 27/50/50 28/51/51 
f 3/52/52 21/53/53 30/54/54 
f 30/55/55 27/56/56 14/57/57 
f 1/58/58 3/59/59 18/60/60 
f 24/61/61 31/62/62 25/63/63 
f 24/64/64 5/65/65 31/66/66 
f 3/67/67 30/68/68 14/69/69 
f 15/70/70 6/71/71 13/72/72 
f 31/73/73 11/74/74 10/75/75 
f 5/76/76 11/77/77 31/78/78 
f 14/79/79 28/80/80 22/81/81 
f 27/82/82 30/83/83 23/84/84 
f 20/85/85 30/86/86 21/87/87 
f 5/88/88 21/89/89 3/90/90 
f 21/91/91 5/92/92 19/93/93 
f 16/94/94 1/95/95 17/96/96 
f 16/97/97 29/98/98 1/99/99 
f 10/100/100 29/101/101 16/102/102 
f 29/103/103 10/104/104 12/105/105 
f 27/106/106 6/107/107 28/108/108 
f 17/109/109 1/110/110 18/111/111 
f 13/112/112 6/113/113 16/114/114 
f 7/115/115 6/116/116 27/117/117 
f 10/118/118 6/119/119 9/120/120 
f 16/121/121 17/122/122 13/123/123 
f 19/124/124 26/125/125 20/126/126 
f 24/127/127 26/128/128 19/129/129 
f 24/130/130 23/131/131 26/132/132 
f 23/133/133 24/134/134 25/135/135 
f 14/136/136 22/137/137 15/138/138 
f 19/139/139 20/140/140 21/141/141 
f 13/142/142 17/143/143 18/144/144 
f 6/145/145 10/146/146 16/147/147 
f 13/148/148 14/149/149 15/150/150 
f 13/151/151 3/152/152 14/153/153 
f 10/154/154 11/155/155 12/156/156 
f 8/157/157 9/158/158 6/159/159 
f 6/160/160 7/161/161 8/162/162 
f 5/163/163 2/164/164 4/165/165 
f 2/166/166 5/167/167 3/168/168 
f 2/169/169 1/170/170 4/171/171 
f 1/172/172 2/173/173 3/174/174
